<?xml version="1.0" encoding="utf-8"?>
<!-- Generator: Adobe Illustrator 16.0.0, SVG Export Plug-In . SVG Version: 6.00 Build 0)  -->
<!DOCTYPE svg PUBLIC "-//W3C//DTD SVG 1.1//EN" "http://www.w3.org/Graphics/SVG/1.1/DTD/svg11.dtd">
<svg version="1.1" id="Capa_1" xmlns="http://www.w3.org/2000/svg" xmlns:xlink="http://www.w3.org/1999/xlink" x="0px" y="0px"
	 width="595.281px" height="185.492px" viewBox="0 0 595.281 185.492" enable-background="new 0 0 595.281 185.492"
	 xml:space="preserve">
<rect x="300.667" y="38.496" width="234.332" height="102.75"/>
<path fill="#FFED00" d="M303.925,140.576c1.449-3.941,4.086-7.605,6.354-11.049c1.604-2.438,3.226-5.012,5.146-7.207
	c0.08-21.631,0.197-83.094,0.197-83.094H27v104.252c0,0,244.372-0.652,276.723-0.959
	C303.639,141.875,303.691,141.21,303.925,140.576z"/>
<polygon fill="#E98007" points="356.313,70.848 315.867,73.234 336.031,10 275.421,96.143 315.748,94.232 293.556,157.705 "/>
<rect x="30.811" y="67.491" fill="none" width="258" height="69"/>
<g>
	<path d="M44.893,68.59h25.521v4.359h-21.07v13.956h20.889v4.359h-20.89v17.498h20.889v4.359H44.893V68.59z"/>
	<path d="M78.133,113.123V68.59h0.969l29.638,34.137V68.59h4.39v44.532h-0.999l-29.396-33.72v33.721H78.133z"/>
	<path d="M123.998,68.59h25.521v4.359h-21.07v13.956h20.889v4.359h-20.889v17.498h20.889v4.359h-25.339L123.998,68.59L123.998,68.59
		z"/>
	<path d="M157.45,68.59h8.87c4.944,0,8.295,0.202,10.051,0.606c2.644,0.606,4.793,1.904,6.448,3.895
		c1.655,1.991,2.482,4.441,2.482,7.352c0,2.425-0.57,4.557-1.71,6.396c-1.141,1.839-2.77,3.229-4.889,4.168
		c-2.119,0.939-5.046,1.42-8.779,1.439l16.015,20.677h-5.505l-16.016-20.677H161.9v20.677h-4.45V68.59z M161.9,72.95v15.137
		l7.671,0.061c2.972,0,5.17-0.282,6.595-0.848c1.425-0.564,2.537-1.468,3.335-2.709c0.798-1.241,1.198-2.629,1.198-4.163
		c0-1.493-0.404-2.851-1.213-4.072c-0.809-1.221-1.87-2.093-3.184-2.618c-1.314-0.524-3.497-0.787-6.549-0.787L161.9,72.95
		L161.9,72.95z"/>
	<path d="M237.795,76.068l-3.451,3.27c-2.482-2.441-5.202-4.294-8.159-5.555c-2.957-1.262-5.838-1.893-8.643-1.893
		c-3.492,0-6.817,0.858-9.975,2.573c-3.159,1.716-5.606,4.042-7.341,6.978c-1.736,2.938-2.604,6.04-2.604,9.31
		c0,3.351,0.898,6.534,2.694,9.552s4.278,5.389,7.447,7.113c3.168,1.727,6.64,2.589,10.414,2.589c4.581,0,8.456-1.291,11.625-3.875
		c3.168-2.583,5.045-5.935,5.631-10.051h-14.198V91.78h19.193c-0.041,6.883-2.084,12.347-6.13,16.394
		c-4.047,4.047-9.46,6.069-16.242,6.069c-8.234,0-14.753-2.806-19.557-8.416c-3.693-4.318-5.54-9.313-5.54-14.985
		c0-4.218,1.06-8.144,3.179-11.776c2.119-3.632,5.025-6.474,8.719-8.522c3.693-2.048,7.871-3.072,12.533-3.072
		c3.774,0,7.326,0.682,10.656,2.043C231.377,70.876,234.626,73.061,237.795,76.068z"/>
	<path d="M245.394,68.59h5.121l11.395,18.366l11.215-18.366h5.146l-14.107,23.25v21.282h-4.39V91.84L245.394,68.59z"/>
</g>
<rect x="315" y="66.491" fill="none" width="250" height="129"/>
<g>
	<path fill="#FFFFFF" d="M370.205,103.828l3.783-2.271c2.664,4.904,5.742,7.356,9.233,7.356c1.491,0,2.896-0.349,4.207-1.045
		c1.313-0.695,2.312-1.629,2.997-2.8c0.688-1.17,1.029-2.411,1.029-3.726c0-1.491-0.506-2.954-1.515-4.39
		c-1.394-1.979-3.937-4.359-7.63-7.145c-3.715-2.805-6.023-4.833-6.934-6.085c-1.574-2.099-2.361-4.369-2.361-6.812
		c0-1.938,0.466-3.703,1.395-5.298c0.929-1.594,2.234-2.851,3.921-3.771c1.686-0.918,3.518-1.377,5.495-1.377
		c2.098,0,4.062,0.52,5.888,1.559c1.826,1.04,3.76,2.952,5.799,5.737l-3.634,2.755c-1.676-2.22-3.104-3.683-4.284-4.39
		c-1.181-0.706-2.468-1.06-3.858-1.06c-1.797,0-3.265,0.545-4.404,1.635c-1.14,1.09-1.711,2.433-1.711,4.026
		c0,0.969,0.202,1.907,0.604,2.815c0.403,0.908,1.142,1.897,2.212,2.967c0.584,0.565,2.502,2.049,5.752,4.45
		c3.854,2.846,6.498,5.379,7.932,7.601c1.432,2.221,2.148,4.448,2.148,6.688c0,3.229-1.228,6.035-3.68,8.416
		c-2.452,2.382-5.434,3.571-8.943,3.571c-2.705,0-5.157-0.723-7.357-2.164C374.089,109.635,372.061,107.218,370.205,103.828z"/>
	<path fill="#FFFFFF" d="M426.891,66.47c6.745,0,12.392,2.251,16.935,6.751c4.545,4.501,6.814,10.041,6.814,16.62
		c0,6.521-2.267,12.05-6.801,16.591c-4.533,4.541-10.063,6.813-16.585,6.813c-6.604,0-12.178-2.262-16.722-6.781
		s-6.816-9.988-6.816-16.408c0-4.278,1.035-8.244,3.105-11.897c2.068-3.652,4.893-6.514,8.467-8.582
		C418.863,67.504,422.73,66.47,426.891,66.47z M427.087,70.799c-3.295,0-6.418,0.858-9.369,2.575
		c-2.95,1.718-5.256,4.03-6.913,6.938s-2.485,6.15-2.485,9.726c0,5.292,1.834,9.761,5.504,13.405
		c3.668,3.646,8.091,5.47,13.266,5.47c3.457,0,6.656-0.838,9.599-2.515c2.941-1.678,5.233-3.969,6.884-6.877
		c1.646-2.91,2.471-6.143,2.471-9.696c0-3.534-0.824-6.73-2.471-9.589c-1.648-2.857-3.97-5.145-6.959-6.862
		C433.617,71.658,430.443,70.799,427.087,70.799z"/>
	<path fill="#FFFFFF" d="M459.572,67.59h22.311v4.359h-17.859v13.956h17.859v4.359h-17.859v21.857h-4.449L459.572,67.59
		L459.572,67.59z"/>
	<path fill="#FFFFFF" d="M485.212,71.95v-4.36h24.4v4.359h-9.932v40.173h-4.541V71.95H485.212z"/>
</g>
<rect x="505" y="10" fill="none" width="108" height="92"/>
<g>
	<path fill="#FFFFFF" d="M583.421,19.527c0,3.314-0.82,6.391-2.461,9.229s-3.891,5.085-6.75,6.742
		c-2.859,1.658-5.922,2.486-9.188,2.486c-3.268,0-6.328-0.824-9.188-2.475c-2.859-1.648-5.113-3.896-6.762-6.742
		c-1.649-2.846-2.475-5.895-2.475-9.146c0-3.283,0.824-6.363,2.475-9.24c1.647-2.877,3.896-5.136,6.75-6.777
		c2.852-1.641,5.918-2.463,9.197-2.463c3.281,0,6.342,0.817,9.178,2.451c2.836,1.634,5.082,3.889,6.736,6.766
		C582.591,13.235,583.421,16.291,583.421,19.527z M580.867,19.55c0-2.814-0.711-5.461-2.133-7.939
		c-1.424-2.478-3.354-4.429-5.789-5.852c-2.438-1.423-5.063-2.135-7.875-2.135c-2.828,0-5.48,0.712-7.957,2.135
		c-2.479,1.423-4.422,3.373-5.836,5.852s-2.121,5.141-2.121,7.986c0,2.83,0.707,5.473,2.121,7.928s3.361,4.394,5.848,5.816
		c2.484,1.424,5.133,2.135,7.945,2.135c2.797,0,5.422-0.715,7.875-2.146c2.453-1.431,4.387-3.369,5.801-5.816
		C580.16,25.067,580.867,22.412,580.867,19.55z M557.359,8.804h8.836c2.063,0,3.547,0.207,4.453,0.622
		c0.904,0.414,1.645,1.091,2.215,2.029c0.568,0.938,0.854,2.033,0.854,3.285c0,1.079-0.203,2.01-0.607,2.792
		c-0.313,0.579-0.992,1.212-2.039,1.9c0.953,0.47,1.594,1.013,1.922,1.631s0.492,1.678,0.492,3.18v2.393
		c0,1.127,0.25,2.064,0.75,2.815l0.352,0.563h-3.75c-0.242-0.877-0.412-1.919-0.51-3.126l-0.17-2.607
		c-0.063-0.956-0.214-1.63-0.455-2.021c-0.242-0.392-0.585-0.674-1.029-0.846c-0.441-0.173-1.328-0.259-2.652-0.259h-5.309v8.859
		h-3.352V8.804L557.359,8.804z M560.71,11.851v6.281h5.203c1.578,0,2.647-0.18,3.211-0.539c0.828-0.516,1.242-1.391,1.242-2.625
		c0-1.078-0.297-1.867-0.893-2.367c-0.594-0.5-1.711-0.75-3.352-0.75H560.71z"/>
</g>
<rect x="18" y="157.492" fill="none" width="533" height="60"/>
<g>
	<path fill="#FFFFFF" d="M27.414,181.042l3.291-22.983h0.373l9.344,18.858l9.254-18.858h0.368l3.308,22.983H51.1l-2.271-16.438
		l-8.127,16.438h-0.587l-8.224-16.563l-2.258,16.563H27.414z"/>
	<path fill="#FFFFFF" d="M164.195,158.059h13.172v2.25h-10.875v7.202h10.781v2.25h-10.781v9.031h10.781v2.25h-13.078V158.059z"/>
	<path fill="#FFFFFF" d="M287.648,181.042v-22.983h4.766c3.438,0,5.932,0.275,7.484,0.828c2.229,0.78,3.972,2.135,5.227,4.063
		c1.256,1.928,1.883,4.225,1.883,6.891c0,2.304-0.497,4.328-1.492,6.078c-0.993,1.75-2.284,3.042-3.875,3.875
		c-1.588,0.834-3.813,1.25-6.679,1.25L287.648,181.042L287.648,181.042z M289.852,178.871h2.656c3.177,0,5.38-0.197,6.609-0.594
		c1.729-0.563,3.089-1.573,4.078-3.036c0.989-1.462,1.483-3.25,1.483-5.362c0-2.217-0.537-4.111-1.608-5.684
		c-1.072-1.57-2.567-2.648-4.484-3.23c-1.437-0.438-3.807-0.656-7.109-0.656h-1.625V178.871z"/>
	<path fill="#FFFFFF" d="M408.585,158.059h2.297v22.983h-2.297V158.059z"/>
	<path fill="#FFFFFF" d="M531.851,158.059l10.721,22.983h-2.48l-3.615-7.563h-9.9l-3.58,7.563h-2.563l10.859-22.983H531.851z
		 M531.563,162.941l-3.938,8.318h7.856L531.563,162.941z"/>
</g>
</svg>
