<?xml version="1.0" encoding="UTF-8"?>
<svg xmlns="http://www.w3.org/2000/svg" viewBox="370 10 1080 680">
  <defs>
    <style>
      .st-dark  { fill: #111213; }
      .st-white { fill: #fefefe; }
      .st-blue  { fill: #009df1; }
      .st-green { fill: #57bf00; }
      @media (prefers-color-scheme: dark) {
        .st-dark  { fill: #fefefe; }
        .st-white { fill: #111213; }
      }
    </style>
  </defs>
  <g>
    <path d="M417.42,24.44l-1.49,673.91-238.44,80.01-.06-550.38,56.16-18.42.41,71.47,41.73-13.55.55-72.71,58.67-19.95.77,70.57,36.57-12.27.4-70.75,28.36-10.82.49-56.54c-22.83,18.53-43.84,4.47-62.14-4.73-18.81,4.93-44.21,25.36-64.79,7.46,46.98-.18,53.55-41.21,64.54-42.8,8.23-1.19,24.57,16.7,33.06.04,8.87-17.38,24.36-24.74,45.2-30.56Z"/>
    <path class="st-green" d="M1387.74,548.91c-5.87,19.4-26.81,24.93-44.86,19.54-21.15-6.32-25.06-31.96-19.28-51.31,3-10.05,10.75-17.3,20.82-19.76,18.02-4.41,37.67,1.09,43.23,19.57,3.14,10.42,3.23,21.57.08,31.96Z"/>
    <path class="st-blue" d="M1434.62,567.87c-11.29,3.94-23.11,2.76-33.98-1.77l-.06-14.19c10.9,5.17,29.26,10.06,31.77.22.81-3.19-.56-6.62-3.89-8.38l-16.5-8.72c-10.52-5.56-13.77-18.54-7.52-28.85,7.34-12.1,29.39-10.92,42.7-4.1l-4.79,11.58c-9.81-4.43-23.81-7.38-25.87,1.28-.83,3.49.97,6.67,4.3,8.42l16.03,8.44c7.62,4.01,11.54,11.35,10.57,19.91-.83,7.36-5.13,13.49-12.77,16.16Z"/>
    <path d="M981.62,557.47c6.8.1,12.32-1.66,18.85-3.65v12.9c-19.16,7.31-42.71,4.39-49.4-15.97-3.51-10.67-3.72-22.22-.29-32.85,7.1-22.03,31.79-26.59,52.44-16.58l-4.87,12.37c-4.35-2.22-8.75-4.05-13.71-4.75-7.89-1.11-15.06,2.89-18.04,10.52-3.29,8.45-3.24,18.11-.62,26.81,2.1,6.97,8.03,11.37,15.65,11.19Z"/>
    <path d="M1059.92,555.22c-3.4,9.53-11.31,14.43-20.86,15.01-10.97.67-20.8-4.95-24.48-15.53-2.73-7.85-2.75-16.37-.31-24.31,3.32-10.77,12.97-16.68,24.04-16.19,10.01.45,18.38,5.74,21.74,15.41,2.82,8.11,2.85,17.2-.14,25.6Z"/>
    <path d="M1100.94,521.04c-9.43.13-15.77,5.67-15.86,14.96l-.31,33.23h-8.17s0-53.85,0-53.85c2.3-.45,4.32-.42,6.69-.07l1.72,7.31c4.49-6.9,12.28-8.63,20.03-8.3,9.75.42,16.59,6.83,16.63,16.83l.17,38.05-8.21.04-.08-36.59c-.02-7.52-5.19-11.72-12.62-11.62Z"/>
    <path d="M1200.68,515.28l8.15.03v53.84s-6.83.05-6.83.05l-1.29-7.5c-4.59,7.16-12.55,9.01-20.65,8.43-9.24-.67-16.19-6.41-16.25-16.13l-.27-38.69,8.31-.06.13,36.82c.01,3.51,1.44,7.65,4.68,9.43,5.36,2.93,12.86,2.66,17.93-.84,4.14-2.85,5.77-8.17,5.81-13.08l.27-32.29Z"/>
    <path d="M1250.16,521.04c-9.14.28-15.32,5.56-15.41,14.72l-.33,33.49-8.17-.04v-53.84c2.4-.46,4.17-.3,6.57-.18l1.55,7.72c5.94-9.59,21.51-11.07,30.39-5.32,4.49,2.91,6.45,8.38,6.49,13.68l.25,37.98-8.2-.02-.11-36.54c-.02-7.7-5.43-11.88-13.03-11.65Z"/>
    <path d="M1313.04,562.59l.06,6.21c-3.81,1.45-7.53,1.61-11.57,1.28-7.1-.58-12.32-5.87-12.39-13.17l-.31-35.38-6.98-.13c-.92-.02-1.06-2.32-.58-3.31,1.04-2.13,6.9-2.55,7.46-4.28l3.51-10.78c1.57-.45,2.98-.42,4.79-.2l.03,12.3h15.62s0,6.35,0,6.35l-15.66.02.15,33.48c.01,3.1,1.67,6.27,4.43,7.49,3.61,1.61,7.35,1.21,11.44.12Z"/>
    <path d="M1124.76,592.54c-.48-2.41-.32-4.34-.15-6.91,2.57.65,4.8,1.1,7.47,1.03,3.91-.1,6.52-3.06,6.52-7.1l.09-64.29,8.24.03-.22,64.85c-.02,5.76-3.33,10.7-8.5,12.44-4.33,1.46-8.56,1.24-13.45-.06Z"/>
    <path d="M562.45,452.72l-71.97-35.04c-3.69-31.95-2.58-71.03,21.44-79.6,12.54-4.47,24.79-.42,34.3,8.66,10.98,10.49,15,25.61,16.67,40.93l-.43,65.05Z"/>
    <path class="st-dark" d="M415.94,698.35l1.49-673.91-1.49,673.91Z"/>
    <polygon points="523.88 261.83 472.08 237.61 521.22 195.97 523.88 261.83"/>
    <path d="M1147.6,500.59c-.09,3.34-2.03,5.23-4.68,5.26s-4.61-1.84-4.87-4.84,1.24-5.54,4.18-5.87,5.46,1.81,5.36,5.45Z"/>
    <polygon points="595.1 291.86 549.02 270.61 594.68 232.11 595.1 291.86"/>
    <path class="st-white" d="M340.17,425.35l-82.75,24.94c-.45-39.68-5.01-81.63,22.53-99.31,12.25-7.86,28.25-9.78,42.17-2.81,11.36,5.69,17.07,18.16,17.27,30.52l.77,46.65Z"/>
    <path class="st-white" d="M1372.36,545.16c-2.22,8.22-8.9,12.42-16.82,12.33s-14.04-4.05-16.35-11.65c-2.45-8.05-2.46-17.06-.08-25.09s9.05-12.21,17.1-12.01c7.68.19,13.74,4.1,16.02,11.83s2.35,16.41.14,24.59Z"/>
    <path class="st-white" d="M1037.18,563.44c-7.32-.04-12.72-4.08-14.68-10.66s-2.06-14.24-.14-21.01,7.46-10.47,14.42-10.63c7.15-.17,13.19,3.35,15.33,10.46s2.11,14.5-.06,21.43c-2.06,6.56-7.64,10.45-14.88,10.41Z"/>
  </g>
  <path d="M1465.47,486.54c0,4.93-3.87,8.8-8.9,8.8s-8.96-3.87-8.96-8.8,3.97-8.69,8.96-8.69,8.9,3.87,8.9,8.69ZM1449.83,486.54c0,3.87,2.86,6.94,6.78,6.94s6.62-3.07,6.62-6.89-2.81-7-6.68-7-6.73,3.13-6.73,6.94ZM1455.19,491.09h-2.01v-8.69c.79-.16,1.91-.27,3.34-.27,1.64,0,2.38.27,3.02.64.48.37.85,1.06.85,1.91,0,.95-.74,1.7-1.8,2.01v.11c.85.32,1.33.95,1.59,2.12.26,1.32.42,1.85.64,2.17h-2.17c-.26-.32-.42-1.11-.69-2.12-.16-.95-.69-1.38-1.8-1.38h-.95v3.5ZM1455.24,486.17h.95c1.11,0,2.01-.37,2.01-1.27,0-.79-.58-1.33-1.85-1.33-.53,0-.9.05-1.11.11v2.49Z"/>
</svg>
